<svg width="100px" height="100px" viewBox="0 0 300 300" xmlns="http://www.w3.org/2000/svg"><title>Football-Weekly-300</title><g id="Football-Weekly-300" fill="none" fill-rule="evenodd"><g id="Group-3"><path id="BG" fill="#00B2FF" d="M0.006 300L300 300 300 0 0.006 0z"/><g id="Group-2" transform="translate(100.8 78.8)"><path id="Fill-23" fill="#F5F4F5" d="M169.704108 129.21281L131.151307 106.950224 108.01882 120.307238 146.572965 142.56848 169.704108 129.21281"/><path id="Fill-24" fill="#F5F4F5" d="M115.729649 44.6192837L115.729649 72.6172524 138.868857 85.9702332 138.862136 57.9762978 115.729649 44.6192837"/><path id="Fill-25" fill="#C00000" d="M169.704108 155.925494L169.704108 129.21281 146.572965 142.56848 146.572965 169.282508 169.704108 155.925494"/><path id="Fill-26" fill="#C00000" d="M115.729649 0.0954552593L115.729649 44.6192837 138.862136 57.9762978 138.862136 13.4524694 115.729649 0.0954552593"/><path d="M169.704108,155.925494 L177.414937,160.37828 C180.841524,162.357296 180.841524,167.303492 177.414937,169.282508 L164.563555,176.702474 C162.973264,177.622071 161.014638,177.622071 159.423002,176.702474 L146.572965,169.282508 L169.704108,155.925494" id="Fill-27" fill="#1A1E1C"/><path d="M69.4660194,166.313984 L69.4660194,151.474052 L92.5971621,138.117038 L92.5971621,173.735294 C92.5971621,177.691982 88.3142644,180.165752 84.8863331,178.186736 L72.0362957,170.76677 C70.4446602,169.848517 69.4660194,168.151834 69.4660194,166.313984" id="Fill-28" fill="#A0715F"/><path id="Fill-29" fill="#1A1E1C" d="M23.2010456 124.760024L7.7793876 133.664252 0.0699029126 111.40301 23.2010456 124.760024"/><path d="M138.862136,13.4524694 L115.729649,0.0954552593 L108.01882,4.54824144 C104.592233,6.52725752 104.592233,11.4747977 108.01882,13.4524694 L120.870202,20.8737797 C122.460493,21.7920324 124.420463,21.7920324 126.010754,20.8737797 L138.862136,13.4524694" id="Fill-30" fill="#1A1E1C"/><path d="M25.7713219,108.434486 L38.6227035,115.855796 L23.2010456,124.760024 L7.7793876,115.855796 L20.6307692,108.434486 C22.2210605,107.516233 24.1810306,107.516233 25.7713219,108.434486" id="Fill-31" fill="#A0715F"/><path d="M38.6227035,142.569824 L38.6227035,193.028012 C38.6227035,194.864517 39.6026886,196.562545 41.1929798,197.480798 L54.04705,204.903453 C57.473637,206.881125 61.7565347,204.408699 61.757879,200.452011 L61.7551904,155.925494 L38.6227035,142.569824" id="Fill-32" fill="#A0715F"/><path id="Fill-33" fill="#A40000" d="M92.5971621 129.21281L92.5971621 155.925494 69.4660194 142.56848 69.4660194 115.855796 92.5971621 129.21281"/><path id="Fill-34" fill="#C00000" d="M138.868857 84.6849483L138.862136 111.40301 61.7551904 155.925494 38.6227035 142.569824 38.6227035 115.855796 115.729649 71.3319675z"/><path id="Fill-35" fill="#B20000" d="M169.704108 129.21281L161.993279 124.760024 138.862136 138.117038 146.572965 142.56848 169.704108 129.21281"/><path id="Fill-36" fill="#A40000" d="M61.7551904 129.21281L61.7551904 155.925494 38.6227035 142.569824 38.6227035 115.855796 61.7551904 129.21281"/></g></g></g></svg>
